<svg xmlns="http://www.w3.org/2000/svg" viewBox="0 0 371.94 243.58"><defs><style>.cls-1{fill:#fff;}</style></defs><g id="Layer_2" data-name="Layer 2"><g id="Layer_1-2" data-name="Layer 1"><path class="cls-1" d="M371.93,110.23c0,30.35.06,60.7-.08,91A35.69,35.69,0,0,1,370,212c-1.78,5.46-8,8.79-15,8.24-13-1-25.86-2.49-38.81-3.38-18.78-1.29-37.56-2.83-56.37-3.21-40.47-.81-81-1.37-121.44-1.18-20.63.09-41.26,1.81-61.87,3.15-19.6,1.27-39.17,3.07-58.76,4.51C6.87,220.91.77,215.41.06,204.53c-.09-1.33,0-2.67,0-4Q0,109.74,0,19C0,8.74,3.44,3.09,11.36.58A13.88,13.88,0,0,1,16.73.07C42.57,2.58,68.38,5.46,94.24,7.69A1043.54,1043.54,0,0,0,216.1,11c28.61-.89,57.19-3.18,85.75-5.21,15.61-1.11,31.15-3,46.73-4.5,3.77-.36,7.73-1.52,11.27-.77,8.06,1.71,12,7.88,12.07,17.18Q372,64,371.93,110.23Zm-12.12,0v-91c0-7.37-.67-8-8.1-7.09C342.46,13.3,333.27,15,324,15.74c-24.87,2.08-49.75,4.79-74.68,5.46-38.29,1-76.63,1.27-114.93.46-25.58-.55-51.13-3.35-76.68-5.43-13.1-1.07-26.14-2.83-39.22-4.17-5.55-.57-6.55.35-6.55,5.93q0,92.27,0,184.52c0,5.5,1.1,6.38,6.54,5.93,12.11-1,24.21-2.2,36.34-2.87,33.08-1.8,66.16-4.51,99.25-4.74,43.28-.31,86.59,1,129.85,2.45,23.1.79,46.14,3.4,69.2,5.25,5.65.46,6.67-.31,6.68-6.27Q359.83,156.26,359.81,110.25Z"/><path class="cls-1" d="M252.11,236.65c.09,4.9-2.85,7.49-7.37,6.82-25.14-3.67-50.43-4-75.74-3.24-13.45.42-26.87,1.86-40.29,3-5.41.48-8.43-.83-9-4.6-.59-4.18,1.94-6.7,7.58-7,24.59-1.14,49.17-2.76,73.77-3,14.92-.14,29.86,2,44.79,3.07C249.44,232.06,251.92,233.59,252.11,236.65Z"/><path class="cls-1" d="M125.23,110.83c0-7.33,0-14.65,0-22,0-4.5,1.63-7.48,6.57-7.49,6.78,0,13.68-.69,20.3.33,9,1.38,13.64,8.58,13.34,18.28-.29,9.15-6.05,16.53-14.34,17.93a62.45,62.45,0,0,1-11.89,1c-3.36-.08-4.53,1.17-4.49,4.29.06,3.66,0,7.33,0,11,0,3.31-1.61,6.05-4.86,5.46-1.77-.32-4.2-3.39-4.32-5.35-.5-7.79-.21-15.63-.21-23.45Zm9.45-10.94h0a47.33,47.33,0,0,0,.1,7,5.16,5.16,0,0,0,2.13,3.45c6.4,3.25,17.4-1.75,18-8.73a13.89,13.89,0,0,0-3.67-10,12.66,12.66,0,0,0-14.42-1.89c-1.68.82-1.56,5.37-2.19,8.23A8.79,8.79,0,0,0,134.68,99.89Z"/><path class="cls-1" d="M246.22,124.09c2.44-6.43,4.93-12.85,7.3-19.31,2.24-6.08,4.27-12.23,6.55-18.29.63-1.66,1.5-3.8,2.86-4.46a6.59,6.59,0,0,1,5.47.34c.86.55,1.07,3.35.54,4.76-6.24,16.63-12.59,33.21-19.19,49.7-.63,1.57-3.28,3.43-4.79,3.27a7.41,7.41,0,0,1-5.05-3.8c-5.63-13.11-10.9-26.38-16.31-39.59-.88-2.15-2-4.21-2.78-6.4-1.1-3.11-2.8-6.74,1.48-8.61,4.6-2,6.19,1.8,7.51,5,4.73,11.67,9.32,23.4,14,35.1.29.73.72,1.4,1.08,2.1Z"/><path class="cls-1" d="M187.58,113.63c0-6.33-.16-12.67,0-19,.14-4-1.56-5.37-5.35-5.17-3.32.17-6.79.53-9.94-.22a7.37,7.37,0,0,1-4.57-4.53C167,81.58,170,81,172.36,81c13.33,0,26.66-.11,40,.23,1.66,0,3.27,2.42,4.9,3.72-1.54,1.5-2.85,3.78-4.67,4.3-2.62.76-5.61.26-8.45.27-7.07,0-7.09,0-7.1,7.34,0,11.33,0,22.67,0,34a38,38,0,0,1-.07,4c-.32,3-1.95,5.57-5,4.76a7,7,0,0,1-4.11-5c-.49-7-.2-14-.2-21Z"/><path class="cls-1" d="M101.67,110.21c0-7.48,0-15,0-22.43,0-3.58.9-6.54,5-6.66s4.84,3.12,4.87,6.22q.17,23.19,0,46.36c0,3.13-.93,6.24-5,6.17s-4.79-2.92-4.79-6.23V110.21Z"/></g></g></svg>